<svg xmlns="http://www.w3.org/2000/svg" viewBox="0 0 512 512">
  <defs>
    <linearGradient id="grad" x1="0%" y1="0%" x2="100%" y2="100%">
      <stop offset="0%" style="stop-color:#3b92ff;stop-opacity:1" />
      <stop offset="100%" style="stop-color:#125ef0;stop-opacity:1" />
    </linearGradient>
  </defs>
  <rect width="512" height="512" rx="96" fill="url(#grad)"/>
  <path d="M256 96c-16 0-29 13-29 29v115c0 16 13 29 29 29h115c16 0 29-13 29-29s-13-29-29-29H285v-86c0-16-13-29-29-29z" fill="white"/>
  <path d="M256 288c-16 0-29 13-29 29v99c0 16 13 29 29 29s29-13 29-29V346l35 35c11 11 29 11 40 0s11-29 0-40l-75-75c-8-8-18-12-29-12z" fill="white" opacity="0.9"/>
</svg>
