<svg xmlns="http://www.w3.org/2000/svg" viewBox="0 0 100 100" fill="none" stroke="#1f2937" stroke-width="2">
  <!-- Chaussures de sécurité - Safety Shoes -->
  <!-- Boot body -->
  <path d="M15 50 L15 35 Q15 25 30 25 L45 25 Q55 25 55 35 L55 50 L55 60 Q55 70 45 75 L20 80 Q10 82 10 75 L10 60 Q10 50 15 50 Z" fill="#374151"/>
  <!-- Toe cap (steel toe) -->
  <path d="M10 70 Q5 65 10 60 L25 55 Q35 53 40 60 L40 70 Q40 78 25 80 L20 80 Q10 80 10 70 Z" fill="#6b7280"/>
  <!-- Sole -->
  <path d="M8 78 L50 72 Q55 72 55 77 L55 85 Q55 90 50 90 L15 95 Q5 95 5 85 L5 82 Q5 78 8 78 Z" fill="#111827"/>
  <!-- Tread pattern -->
  <line x1="12" y1="85" x2="48" y2="80" stroke="#374151"/>
  <line x1="12" y1="88" x2="48" y2="83" stroke="#374151"/>
  <line x1="12" y1="91" x2="48" y2="86" stroke="#374151"/>
  <!-- Laces -->
  <line x1="25" y1="30" x2="40" y2="30" stroke="#fbbf24" stroke-width="2"/>
  <line x1="25" y1="35" x2="40" y2="35" stroke="#fbbf24" stroke-width="2"/>
  <line x1="25" y1="40" x2="40" y2="40" stroke="#fbbf24" stroke-width="2"/>
  <line x1="25" y1="45" x2="40" y2="45" stroke="#fbbf24" stroke-width="2"/>
  <!-- S3 Label -->
  <text x="30" y="65" font-size="10" fill="#fbbf24" font-weight="bold">S3</text>
</svg>
