<svg xmlns="http://www.w3.org/2000/svg" viewBox="0 0 100 100" fill="none" stroke="#0284c7" stroke-width="2">
  <!-- Écran de protection faciale -->
  <!-- Headband -->
  <path d="M15 25 Q50 15 85 25" fill="none" stroke="#1f2937" stroke-width="5"/>
  <!-- Adjustment knob -->
  <circle cx="88" cy="28" r="5" fill="#374151"/>
  <!-- Face shield (transparent effect) -->
  <path d="M10 30 Q10 20 50 18 Q90 20 90 30 L92 75 Q92 90 50 92 Q8 90 8 75 Z" fill="#bae6fd" fill-opacity="0.6" stroke="#0284c7" stroke-width="2"/>
  <!-- Chin guard -->
  <path d="M20 82 Q50 88 80 82" fill="none" stroke="#0369a1" stroke-width="3"/>
  <!-- Reflection lines -->
  <path d="M25 40 L35 70" stroke="#fff" stroke-width="2" opacity="0.5"/>
  <path d="M30 38 L40 68" stroke="#fff" stroke-width="1" opacity="0.3"/>
  <!-- Side guards -->
  <path d="M10 30 Q5 45 8 60" fill="none" stroke="#0369a1" stroke-width="3"/>
  <path d="M90 30 Q95 45 92 60" fill="none" stroke="#0369a1" stroke-width="3"/>
  <!-- Arc flash rating -->
  <rect x="35" y="45" width="30" height="12" rx="2" fill="#0369a1"/>
  <text x="38" y="54" font-size="7" fill="#fff" font-weight="bold">ARC 12</text>
</svg>
