<svg xmlns="http://www.w3.org/2000/svg" viewBox="0 0 100 100" fill="none" stroke="#ca8a04" stroke-width="2">
  <!-- Gants de protection - Safety Gloves -->
  <!-- Left glove -->
  <path d="M15 90 L15 55 Q15 50 20 50 L25 50 L25 35 Q25 30 28 30 Q31 30 31 35 L31 50 L35 50 L35 25 Q35 20 38 20 Q41 20 41 25 L41 50 L45 50 L45 20 Q45 15 48 15 Q51 15 51 20 L51 50 L55 50 L55 30 Q55 25 58 25 Q61 25 61 30 L61 50 Q65 50 65 55 L65 90 Q65 95 50 95 L30 95 Q15 95 15 90 Z" fill="#eab308"/>
  <!-- Cuff -->
  <rect x="15" y="85" width="50" height="10" rx="3" fill="#ca8a04"/>
  <!-- Palm reinforcement -->
  <ellipse cx="40" cy="70" rx="12" ry="8" fill="#a16207" opacity="0.5"/>
  <!-- Finger joints -->
  <line x1="28" y1="40" x2="31" y2="40"/>
  <line x1="38" y1="35" x2="41" y2="35"/>
  <line x1="48" y1="30" x2="51" y2="30"/>
  <line x1="58" y1="40" x2="61" y2="40"/>
</svg>
