<svg xmlns="http://www.w3.org/2000/svg" viewBox="0 0 100 100" fill="none" stroke="#374151" stroke-width="2">
  <!-- Masque respiratoire demi-masque -->
  <!-- Main mask body -->
  <path d="M20 45 Q20 25 50 20 Q80 25 80 45 L80 65 Q80 80 50 85 Q20 80 20 65 Z" fill="#6b7280" stroke="#374151" stroke-width="2"/>
  <!-- Face seal -->
  <path d="M25 45 Q25 30 50 25 Q75 30 75 45 L75 60 Q75 72 50 75 Q25 72 25 60 Z" fill="#9ca3af"/>
  <!-- Exhalation valve center -->
  <circle cx="50" cy="60" r="10" fill="#4b5563" stroke="#374151"/>
  <circle cx="50" cy="60" r="5" fill="#1f2937"/>
  <!-- Filter cartridges -->
  <ellipse cx="25" cy="50" rx="12" ry="18" fill="#7c3aed" stroke="#6d28d9" stroke-width="2"/>
  <ellipse cx="75" cy="50" rx="12" ry="18" fill="#7c3aed" stroke="#6d28d9" stroke-width="2"/>
  <!-- Filter labels -->
  <text x="20" y="53" font-size="7" fill="#fff" font-weight="bold">A2</text>
  <text x="70" y="53" font-size="7" fill="#fff" font-weight="bold">P3</text>
  <!-- Straps -->
  <path d="M20 35 L5 30 L5 25" fill="none" stroke="#4b5563" stroke-width="3"/>
  <path d="M80 35 L95 30 L95 25" fill="none" stroke="#4b5563" stroke-width="3"/>
  <path d="M20 55 L5 60 L5 65" fill="none" stroke="#4b5563" stroke-width="3"/>
  <path d="M80 55 L95 60 L95 65" fill="none" stroke="#4b5563" stroke-width="3"/>
</svg>
